<svg xmlns="http://www.w3.org/2000/svg" width="20" height="20" fill="none"><path fill="#fff" fill-rule="evenodd" d="M18.892 10a8.708 8.708 0 0 0-8.707-8.708h-.003A8.708 8.708 0 1 0 18.892 10ZM3.406 7.795a7.143 7.143 0 0 1 4.572-4.572 9.01 9.01 0 0 0-.994 2.054 12.2 12.2 0 0 0-.34 1.184c-.401.094-.797.206-1.184.34a9.01 9.01 0 0 0-2.054.994Zm0 4.41a7.143 7.143 0 0 0 4.572 4.572 9.011 9.011 0 0 1-.994-2.054 12.2 12.2 0 0 1-.34-1.184 12.185 12.185 0 0 1-1.184-.34 9.008 9.008 0 0 1-2.054-.994Zm4.955 1.631c.038.125.078.25.12.371.383 1.111.938 2.05 1.703 2.715.764-.665 1.32-1.604 1.702-2.715.042-.122.082-.246.12-.37a18.956 18.956 0 0 1-1.839.121 18.955 18.955 0 0 1-1.806-.122Zm4.011-1.647c-.726.113-1.468.17-2.188.186a16.768 16.768 0 0 1-2.19-.186A16.757 16.757 0 0 1 7.81 10c.015-.72.073-1.462.186-2.189.727-.113 1.468-.17 2.189-.186.72.016 1.462.073 2.189.186.112.727.17 1.468.185 2.189-.015.72-.073 1.462-.185 2.189Zm1.35 1.35c-.093.402-.206.798-.339 1.184a9.016 9.016 0 0 1-.994 2.054 7.143 7.143 0 0 0 4.572-4.572 9.01 9.01 0 0 1-2.054.995c-.386.133-.783.245-1.184.34Zm3.239-5.744a7.143 7.143 0 0 0-4.572-4.572c.42.634.746 1.333.994 2.054.133.386.246.782.34 1.184.401.094.797.206 1.184.34.72.248 1.42.573 2.054.994Zm-2.941.383c.125.038.249.077.371.12 1.111.382 2.05.937 2.715 1.702-.665.765-1.604 1.32-2.715 1.702a9.745 9.745 0 0 1-.371.12 18.956 18.956 0 0 0 .122-1.839 18.954 18.954 0 0 0-.122-1.805Zm-2.014-2.014a9.947 9.947 0 0 0-.12-.372c-.383-1.11-.938-2.05-1.702-2.715-.765.666-1.32 1.604-1.703 2.715a9.891 9.891 0 0 0-.12.372 18.955 18.955 0 0 1 1.839-.122c.585.012 1.193.05 1.806.122ZM6.347 8.178a18.958 18.958 0 0 0-.122 1.838c.013.586.05 1.193.122 1.806a9.759 9.759 0 0 1-.371-.12c-1.11-.382-2.05-.937-2.715-1.702.665-.765 1.604-1.32 2.715-1.703.122-.042.246-.082.371-.12Z" clip-rule="evenodd"/></svg>