<svg xmlns="http://www.w3.org/2000/svg" width="215" height="215" fill="none"><g clip-path="url(#a)"><path fill="url(#b)" d="M204.51 121.607c18.788-19.56 8.372-60.051-23.265-90.44C149.607.777 108.729-8.001 89.941 11.559 71.153 31.119 81.569 71.611 113.206 102c31.638 30.389 72.516 39.167 91.304 19.607Z"/><path fill="url(#c)" d="M102.638 113.001C71 82.612 30.122 73.834 11.335 93.394L89.94 11.558c18.788-19.56 59.666-10.782 91.304 19.607 31.637 30.389 42.054 70.88 23.266 90.441l-78.605 81.834c18.787-19.56 8.37-60.051-23.267-90.439Z"/><path fill="url(#d)" d="m126.715 204.218-1.62-1.555c18.328-19.083 7.905-58.942-23.234-88.852-15.153-14.555-32.885-24.587-49.929-28.247-16.85-3.618-30.98-.561-39.788 8.608l-1.619-1.555L89.13 10.78c9.367-9.752 24.24-13.035 41.879-9.247 17.446 3.746 35.563 13.982 51.013 28.822 15.449 14.84 26.406 32.53 30.852 49.81 4.494 17.473 1.812 32.466-7.555 42.217l-78.603 81.833-.001.002ZM38.729 81.836c4.32 0 8.894.507 13.674 1.533 17.447 3.747 35.563 13.983 51.013 28.823 15.449 14.839 26.406 32.529 30.852 49.81 3.144 12.224 2.776 23.236-.937 32.087l70.369-73.261c8.807-9.169 11.293-23.41 6.999-40.102-4.343-16.883-15.08-34.196-30.233-48.75-31.14-29.912-71.387-38.723-89.716-19.64L20.38 85.597c5.327-2.491 11.517-3.761 18.349-3.761Z"/><path fill="url(#e)" d="M125.903 203.443c18.789-19.56 8.372-60.052-23.265-90.441-31.637-30.389-72.515-39.167-91.303-19.607-18.789 19.56-8.372 60.051 23.265 90.44 31.637 30.389 72.515 39.168 91.303 19.608Z"/><path fill="url(#f)" d="M98.51 215c-4.32 0-8.894-.507-13.675-1.534-17.446-3.746-35.562-13.982-51.012-28.822-15.45-14.84-26.406-32.53-30.852-49.811-4.495-17.473-1.812-32.466 7.554-42.217 9.366-9.75 24.239-13.035 41.879-9.247 17.446 3.747 35.562 13.983 51.012 28.822 15.45 14.84 26.406 32.53 30.852 49.811 4.495 17.472 1.811 32.466-7.554 42.217C119.886 211.328 110.129 215 98.51 215ZM38.738 84.082c-11.006 0-20.201 3.434-26.594 10.09-18.329 19.082-7.906 58.942 23.234 88.853 15.153 14.555 32.885 24.586 49.928 28.246 16.851 3.619 30.981.562 39.788-8.607h.001c8.807-9.169 11.292-23.411 6.999-40.103-4.344-16.882-15.081-34.196-30.234-48.751-15.153-14.555-32.884-24.586-49.928-28.246-4.62-.992-9.037-1.482-13.194-1.482Z"/></g><defs><linearGradient id="b" x1="112.981" x2="186.529" y1="90.716" y2="38.886" gradientUnits="userSpaceOnUse"><stop stop-color="#E5E5E5" stop-opacity="0"/><stop offset=".233" stop-color="#EAEAEA" stop-opacity=".099"/><stop offset=".728" stop-color="#F7F7F7" stop-opacity=".353"/><stop offset=".996" stop-color="#fff" stop-opacity=".5"/></linearGradient><linearGradient id="c" x1="54.614" x2="164.649" y1="52.83" y2="122.876" gradientUnits="userSpaceOnUse"><stop stop-color="#E5E5E5" stop-opacity=".3"/><stop offset=".221" stop-color="#E9E9E9" stop-opacity=".394"/><stop offset=".69" stop-color="#F6F6F6" stop-opacity=".632"/><stop offset=".996" stop-color="#fff" stop-opacity=".8"/></linearGradient><linearGradient id="d" x1="67.227" x2="183.415" y1="33.587" y2="145.19" gradientUnits="userSpaceOnUse"><stop stop-color="#fff" stop-opacity="0"/><stop offset="1" stop-color="#fff" stop-opacity=".8"/></linearGradient><linearGradient id="e" x1="115.347" x2="32.253" y1="125.457" y2="166.29" gradientUnits="userSpaceOnUse"><stop stop-color="#F2F2F2" stop-opacity=".1"/><stop offset=".141" stop-color="#F1F1F1" stop-opacity=".121"/><stop offset=".301" stop-color="#F0F0F0" stop-opacity=".181"/><stop offset=".47" stop-color="#EEE" stop-opacity=".281"/><stop offset=".646" stop-color="#ECECEC" stop-opacity=".421"/><stop offset=".825" stop-color="#E8E8E8" stop-opacity=".599"/><stop offset=".996" stop-color="#E5E5E5" stop-opacity=".8"/></linearGradient><linearGradient id="f" x1="10.525" x2="126.713" y1="92.618" y2="204.221" gradientUnits="userSpaceOnUse"><stop stop-color="#fff" stop-opacity="0"/><stop offset="1" stop-color="#fff" stop-opacity=".8"/></linearGradient><clipPath id="a"><path fill="#fff" d="M.844 0H215v215H.844z"/></clipPath></defs></svg>