<svg width="19" height="20" viewBox="0 0 19 20" fill="none" xmlns="http://www.w3.org/2000/svg">
<g id="phone-01.2 1">
<path id="Vector" fill-rule="evenodd" clip-rule="evenodd" d="M12.5388 1.29169H6.46118C6.04387 1.29167 5.68382 1.29166 5.38729 1.31589C5.07431 1.34146 4.76301 1.39792 4.46346 1.55055C4.01657 1.77825 3.65325 2.14157 3.42555 2.58846C3.27292 2.88801 3.21646 3.19931 3.19089 3.51229C3.16666 3.80882 3.16667 4.16883 3.16669 4.58614V15.4138C3.16667 15.8312 3.16666 16.1912 3.19089 16.4877C3.21646 16.8008 3.27292 17.112 3.42555 17.4116C3.65325 17.8585 4.01657 18.2218 4.46346 18.4495C4.76301 18.6021 5.07431 18.6586 5.38729 18.6841C5.68382 18.7084 6.04384 18.7084 6.46116 18.7084H12.5389C12.9562 18.7084 13.3162 18.7084 13.6127 18.6841C13.9258 18.6586 14.237 18.6021 14.5366 18.4495C14.9835 18.2218 15.3468 17.8585 15.5745 17.4116C15.7271 17.112 15.7836 16.8008 15.8091 16.4877C15.8334 16.1912 15.8334 15.8313 15.8334 15.4139V4.58619C15.8334 4.1689 15.8334 3.80881 15.8091 3.51229C15.7836 3.19931 15.7271 2.88801 15.5745 2.58846C15.3468 2.14157 14.9835 1.77825 14.5366 1.55055C14.237 1.39792 13.9258 1.34146 13.6127 1.31589C13.3162 1.29166 12.9562 1.29167 12.5388 1.29169ZM9.50002 13.1667C8.8442 13.1667 8.31252 13.6984 8.31252 14.3542C8.31252 15.01 8.8442 15.5417 9.50002 15.5417C10.1558 15.5417 10.6875 15.01 10.6875 14.3542C10.6875 13.6984 10.1558 13.1667 9.50002 13.1667Z" fill="white"/>
</g>
</svg>
